# xmcd
#
# Track frame offsets:
#	150
#	14890
#	29416
#	43080
#	58446
#	74073
#	85034
#	101566
#	126549
#	143668
#	159771
#	177158
#
# Disc length: 2650 seconds
#
# Revision: 1
# Processed by: cddbd v1.5.2PL0 Copyright (c) Steve Scherf et al.
# Submitted via: audiograbber 1.83.01
#
DISCID=af0a580c
DTITLE=The Wake Woods - Get Outta My Way
DYEAR=2015
DGENRE=Blues
TTITLE0=Get Outta My Way
TTITLE1=Coffee, Whiskey, Cigarettes
TTITLE2=Can't You Feel It
TTITLE3=Oh La La
TTITLE4=Carolina
TTITLE5=Sooner Or Later
TTITLE6=Go Ahead
TTITLE7=All The Plans We Had
TTITLE8=What You Gonna Leave It For
TTITLE9=Up And Gone Away
TTITLE10=Why Do You Love This Man
TTITLE11=Home
EXTD=
EXTT0=
EXTT1=
EXTT2=
EXTT3=
EXTT4=
EXTT5=
EXTT6=
EXTT7=
EXTT8=
EXTT9=
EXTT10=
EXTT11=
PLAYORDER=
